<svg width="20" height="20" viewBox="0 0 20 20" fill="none" xmlns="http://www.w3.org/2000/svg">
<path d="M12.5 16.667H4.167C3.06225 16.6657 2.00313 16.2262 1.22195 15.4451C0.44077 14.6639 0.00132321 13.6048 0 12.5L0 4.167C0.00132321 3.06225 0.44077 2.00313 1.22195 1.22195C2.00313 0.44077 3.06225 0.00132321 4.167 0L12.5 0C13.6048 0.00132321 14.6639 0.44077 15.4451 1.22195C16.2262 2.00313 16.6657 3.06225 16.667 4.167V12.5C16.6657 13.6048 16.2262 14.6639 15.4451 15.4451C14.6639 16.2262 13.6048 16.6657 12.5 16.667ZM4.167 1.667C3.50396 1.667 2.86807 1.93039 2.39923 2.39923C1.93039 2.86807 1.667 3.50396 1.667 4.167V12.5C1.667 13.163 1.93039 13.7989 2.39923 14.2678C2.86807 14.7366 3.50396 15 4.167 15H12.5C13.163 15 13.7989 14.7366 14.2678 14.2678C14.7366 13.7989 15 13.163 15 12.5V4.167C15 3.50396 14.7366 2.86807 14.2678 2.39923C13.7989 1.93039 13.163 1.667 12.5 1.667H4.167ZM20 15.833V5C20 4.77894 19.9122 4.56694 19.7559 4.41063C19.5996 4.25431 19.3876 4.1665 19.1665 4.1665C18.9454 4.1665 18.7334 4.25431 18.5771 4.41063C18.4208 4.56694 18.333 4.77894 18.333 5V15.833C18.333 16.496 18.0696 17.1319 17.6008 17.6008C17.1319 18.0696 16.496 18.333 15.833 18.333H5C4.77894 18.333 4.56694 18.4208 4.41063 18.5771C4.25431 18.7334 4.1665 18.9454 4.1665 19.1665C4.1665 19.3876 4.25431 19.5996 4.41063 19.7559C4.56694 19.9122 4.77894 20 5 20H15.833C16.9378 19.9987 17.9969 19.5592 18.7781 18.7781C19.5592 17.9969 19.9987 16.9378 20 15.833Z" fill="#6F737A"/>
</svg>
